<?xml version="1.0" encoding="utf-8"?>
<!-- Svg Vector Icons : http://www.onlinewebfonts.com/icon -->
<!DOCTYPE svg PUBLIC "-//W3C//DTD SVG 1.1//EN" "http://www.w3.org/Graphics/SVG/1.1/DTD/svg11.dtd">
<svg version="1.1" xmlns="http://www.w3.org/2000/svg" xmlns:xlink="http://www.w3.org/1999/xlink" x="0px" y="0px" viewBox="0 0 256 256" enable-background="new 0 0 256 256" xml:space="preserve">
<metadata> Svg Vector Icons : http://www.onlinewebfonts.com/icon </metadata>
<g><g><path fill="#000000" d="M246,254.2h-23.7c-3-39.9-27-72.7-62.8-86.7c-11.4,5.5-18.1,7.9-31.5,7.9c-13.4,0-20.2-2.4-31.5-7.9c-35.7,14.1-59.7,46.8-62.8,86.7H10c2.8-42.6,28.3-79,64.4-97.5c-20.2-15.9-33.2-40.5-33.2-68.1c0-47.9,38.9-86.7,86.7-86.7c47.9,0,86.7,38.8,86.7,86.7c0,27.7-13,52.2-33.2,68.1C217.7,175.1,243.2,211.5,246,254.2z M191.1,88.6c0-34.8-28.2-63.1-63.1-63.1S64.9,53.7,64.9,88.6c0,34.8,28.2,63.1,63.1,63.1S191.1,123.4,191.1,88.6z"/></g></g>
</svg>